<?xml version="1.0" standalone="no"?>
<!DOCTYPE svg PUBLIC "-//W3C//DTD SVG 20010904//EN"
 "http://www.w3.org/TR/2001/REC-SVG-20010904/DTD/svg10.dtd">
<svg version="1.0" xmlns="http://www.w3.org/2000/svg"
 width="2000.000000pt" height="2000.000000pt" viewBox="0 0 2000.000000 2000.000000"
 preserveAspectRatio="xMidYMid meet">
<metadata>
Created by potrace 1.14, written by Peter Selinger 2001-2017
</metadata>
<g transform="translate(0.000000,2000.000000) scale(0.100000,-0.100000)"
fill="#000000" stroke="none">
<path d="M9347 14354 c-1 -1 -47 -4 -102 -7 -55 -3 -107 -8 -115 -11 -8 -3
-33 -8 -55 -11 -142 -20 -425 -120 -601 -211 -266 -138 -563 -395 -791 -685
-106 -134 -279 -414 -388 -630 -47 -93 -94 -184 -103 -202 -10 -18 -32 -62
-49 -98 l-31 -66 52 4 c173 14 290 2 421 -42 96 -32 225 -90 290 -130 57 -36
113 -60 121 -53 3 3 7 32 9 64 4 63 8 87 30 167 81 305 199 540 378 757 131
157 313 322 329 297 4 -6 7 -798 8 -1759 l0 -1748 -27 -5 c-16 -3 -46 -10 -68
-16 -22 -6 -65 -17 -95 -24 -101 -25 -333 -115 -475 -185 -413 -203 -826 -579
-1052 -960 -126 -212 -220 -446 -269 -675 -11 -49 -36 -182 -39 -205 -16 -115
-20 -189 -20 -340 1 -207 8 -283 46 -460 104 -482 303 -848 657 -1209 305
-310 607 -514 984 -665 102 -41 281 -101 333 -112 11 -2 29 -6 40 -8 11 -2 38
-9 60 -14 42 -12 186 -35 295 -49 130 -16 673 -8 777 11 10 2 41 7 68 10 451
61 972 265 1360 534 275 190 631 562 812 847 315 498 537 1084 632 1675 6 36
13 74 15 86 2 12 7 45 11 75 3 30 8 65 10 79 5 30 12 84 20 165 4 33 8 76 10
95 4 35 14 184 21 305 4 90 4 537 -1 640 -7 155 -15 278 -20 320 -2 22 -7 69
-10 105 -3 36 -10 94 -16 130 -6 36 -12 81 -15 100 -2 19 -6 42 -9 50 -2 8 -7
38 -11 65 -3 28 -8 59 -10 70 -2 10 -6 37 -9 60 -8 56 -54 335 -61 365 -3 14
-7 34 -9 45 -17 100 -69 328 -107 470 -57 216 -214 664 -293 840 -13 28 -33
75 -46 105 -39 95 -181 370 -249 483 -56 93 -241 362 -260 377 -3 3 -15 17
-26 32 -139 180 -357 391 -619 596 -142 111 -373 246 -565 328 -144 61 -400
141 -540 168 -14 3 -47 9 -75 15 -27 5 -77 13 -110 16 -33 4 -67 9 -76 10 -48
9 -365 25 -372 19z m288 -668 c11 -2 47 -7 80 -10 81 -10 122 -16 170 -26 22
-5 54 -11 72 -14 31 -6 212 -69 288 -101 52 -22 181 -87 225 -113 19 -12 49
-29 65 -38 17 -9 66 -41 110 -72 238 -165 478 -413 670 -693 149 -217 328
-554 424 -799 29 -74 57 -144 61 -155 10 -24 23 -58 25 -65 0 -3 20 -61 42
-130 58 -176 120 -398 154 -555 7 -33 14 -64 15 -70 2 -9 16 -77 29 -145 3
-14 10 -49 16 -79 6 -30 12 -64 14 -75 13 -88 26 -173 30 -186 2 -8 7 -42 10
-74 3 -33 8 -62 9 -65 2 -3 7 -42 11 -85 4 -43 8 -86 10 -95 1 -9 6 -50 10
-91 4 -41 8 -82 10 -90 27 -147 27 -937 -1 -1175 -2 -22 -6 -60 -8 -85 -7 -71
-36 -280 -46 -335 -47 -241 -63 -320 -86 -408 -27 -110 -124 -407 -153 -472
-10 -22 -37 -83 -60 -136 -214 -492 -602 -946 -1013 -1187 -235 -138 -553
-259 -778 -297 -19 -3 -42 -8 -50 -10 -8 -2 -33 -6 -55 -9 -22 -4 -51 -8 -65
-11 -135 -25 -203 -30 -455 -30 -321 0 -340 3 -630 93 -153 47 -395 155 -477
213 -14 11 -29 19 -32 19 -10 0 -216 151 -252 185 -182 168 -294 299 -402 472
-141 226 -220 433 -258 678 -13 87 -14 375 0 435 3 14 10 54 16 90 31 194 53
268 133 430 139 285 311 488 587 691 172 126 318 202 519 269 65 22 122 40
126 40 8 0 0 -1710 -8 -1755 -6 -29 -14 -85 -23 -155 -7 -51 -43 -169 -65
-212 -10 -20 -19 -39 -19 -41 0 -4 7 -4 115 10 134 16 647 8 758 -12 l29 -6
-20 29 c-50 70 -87 251 -107 522 -4 49 -6 677 -5 1376 l0 242 40 -9 c214 -48
418 -167 547 -318 118 -138 172 -294 167 -481 -1 -52 -7 -107 -13 -122 -13
-34 -13 -34 92 -7 45 12 93 23 107 25 14 2 34 6 46 9 49 11 166 20 254 19 124
-2 227 -19 320 -55 41 -16 76 -29 77 -29 1 0 0 15 -2 33 -19 147 -88 420 -134
528 -91 214 -185 360 -338 527 -53 57 -178 166 -233 202 -12 8 -32 22 -44 31
-63 47 -285 164 -387 203 -66 26 -216 73 -255 80 -67 13 -239 48 -242 51 -5 4
-3 3357 2 3385 2 14 7 75 11 135 4 61 8 119 10 130 1 11 3 26 4 32 1 10 24 12
94 8 50 -3 101 -7 112 -9z"/>
</g>
</svg>
